<svg xmlns="http://www.w3.org/2000/svg" width="512" height="512" viewBox="0 0 512 512">
  <defs>
    <linearGradient id="bg" x1="0%" y1="0%" x2="100%" y2="100%">
      <stop offset="0%" style="stop-color:#818cf8;stop-opacity:1" />
      <stop offset="100%" style="stop-color:#6366f1;stop-opacity:1" />
    </linearGradient>
    <linearGradient id="accent" x1="0%" y1="0%" x2="100%" y2="100%">
      <stop offset="0%" style="stop-color:#22d3ee;stop-opacity:1" />
      <stop offset="100%" style="stop-color:#06b6d4;stop-opacity:1" />
    </linearGradient>
  </defs>
  <rect width="512" height="512" rx="96" fill="url(#bg)"/>
  <!-- P letter shape -->
  <path d="M160 400V112h104c52 0 88 8 112 24 24 16 40 40 48 72 8 32 4 60-12 84-16 24-40 40-72 48-20 5-48 8-84 8h-56v52h-40zm40-200v108h48c24 0 44-4 60-12 16-8 28-20 36-36 8-16 10-34 6-54-4-20-14-34-30-42-16-8-40-12-72-12h-48z" fill="white" opacity="0.95"/>
  <!-- decorative dots -->
  <circle cx="380" cy="140" r="12" fill="url(#accent)" opacity="0.8"/>
  <circle cx="420" cy="180" r="8" fill="url(#accent)" opacity="0.6"/>
  <circle cx="440" cy="230" r="6" fill="url(#accent)" opacity="0.4"/>
  <circle cx="400" cy="380" r="10" fill="url(#accent)" opacity="0.5"/>
</svg>